<svg viewBox="0 0 700 550" xmlns="http://www.w3.org/2000/svg">
  <rect width="700" height="550" fill="#f6f8fb"/>
  <rect x="0" y="380" width="700" height="170" fill="#e3e8ef"/>
  <!-- shelving units -->
  <g>
    <rect x="60" y="120" width="180" height="280" fill="#ffffff" stroke="#c4d2e0" stroke-width="3"/>
    <line x1="60" y1="190" x2="240" y2="190" stroke="#c4d2e0" stroke-width="3"/>
    <line x1="60" y1="260" x2="240" y2="260" stroke="#c4d2e0" stroke-width="3"/>
    <line x1="60" y1="330" x2="240" y2="330" stroke="#c4d2e0" stroke-width="3"/>
    <rect x="75" y="135" width="40" height="40" fill="#0b2545"/>
    <rect x="125" y="140" width="40" height="35" fill="#e8762c"/>
    <rect x="175" y="135" width="40" height="40" fill="#9fb4cd"/>
    <rect x="75" y="205" width="40" height="40" fill="#e8762c"/>
    <rect x="125" y="205" width="40" height="40" fill="#0b2545"/>
    <rect x="175" y="210" width="40" height="35" fill="#9fb4cd"/>
    <rect x="75" y="275" width="40" height="40" fill="#9fb4cd"/>
    <rect x="125" y="275" width="40" height="40" fill="#e8762c"/>
    <rect x="175" y="275" width="40" height="40" fill="#0b2545"/>
  </g>
  <g>
    <rect x="280" y="120" width="180" height="280" fill="#ffffff" stroke="#c4d2e0" stroke-width="3"/>
    <line x1="280" y1="190" x2="460" y2="190" stroke="#c4d2e0" stroke-width="3"/>
    <line x1="280" y1="260" x2="460" y2="260" stroke="#c4d2e0" stroke-width="3"/>
    <line x1="280" y1="330" x2="460" y2="330" stroke="#c4d2e0" stroke-width="3"/>
    <circle cx="320" cy="155" r="20" fill="#0b2545"/>
    <circle cx="370" cy="155" r="20" fill="#e8762c"/>
    <circle cx="420" cy="155" r="20" fill="#9fb4cd"/>
    <rect x="300" y="225" width="35" height="35" fill="#9fb4cd"/>
    <rect x="345" y="225" width="35" height="35" fill="#0b2545"/>
    <rect x="390" y="225" width="35" height="35" fill="#e8762c"/>
    <rect x="300" y="295" width="35" height="35" fill="#e8762c"/>
    <rect x="345" y="295" width="35" height="35" fill="#9fb4cd"/>
    <rect x="390" y="295" width="35" height="35" fill="#0b2545"/>
  </g>
  <!-- forklift -->
  <g transform="translate(500,330)">
    <rect x="0" y="40" width="90" height="40" rx="6" fill="#e8762c"/>
    <rect x="10" y="0" width="14" height="60" fill="#1c2733"/>
    <circle cx="20" cy="90" r="14" fill="#1c2733"/>
    <circle cx="75" cy="90" r="14" fill="#1c2733"/>
    <rect x="-10" y="20" width="14" height="50" fill="#9fb4cd"/>
  </g>
</svg>
